<mxfile host="65bd71144e">
    <diagram id="nfT5Ox_BN2_0T0ZbxCXH" name="gNB">
        <mxGraphModel dx="1050" dy="771" grid="1" gridSize="10" guides="1" tooltips="1" connect="1" arrows="1" fold="1" page="1" pageScale="1" pageWidth="850" pageHeight="1100" math="0" shadow="0">
            <root>
                <mxCell id="0"/>
                <mxCell id="1" parent="0"/>
            </root>
        </mxGraphModel>
    </diagram>
    <diagram id="kxTTjO1hVpgOUanV7Kgc" name="Flow Chart">
        <mxGraphModel dx="1050" dy="771" grid="1" gridSize="10" guides="1" tooltips="1" connect="1" arrows="1" fold="1" page="1" pageScale="1" pageWidth="850" pageHeight="1100" math="0" shadow="0">
            <root>
                <mxCell id="wU8dArdzLeq-rl65d7KV-0"/>
                <mxCell id="wU8dArdzLeq-rl65d7KV-1" parent="wU8dArdzLeq-rl65d7KV-0"/>
                <mxCell id="SRkGbtmF08TyHotfoRjQ-5" style="edgeStyle=none;html=1;entryX=0.75;entryY=1;entryDx=0;entryDy=0;exitX=0.75;exitY=0;exitDx=0;exitDy=0;" edge="1" parent="wU8dArdzLeq-rl65d7KV-1" source="SRkGbtmF08TyHotfoRjQ-0" target="SRkGbtmF08TyHotfoRjQ-1">
                    <mxGeometry relative="1" as="geometry"/>
                </mxCell>
                <mxCell id="SRkGbtmF08TyHotfoRjQ-0" value="[gNB]Response gNB Information" style="rounded=1;whiteSpace=wrap;html=1;" vertex="1" parent="wU8dArdzLeq-rl65d7KV-1">
                    <mxGeometry x="20" y="220" width="370" height="50" as="geometry"/>
                </mxCell>
                <mxCell id="SRkGbtmF08TyHotfoRjQ-3" style="edgeStyle=none;html=1;entryX=0.25;entryY=0;entryDx=0;entryDy=0;exitX=0.25;exitY=1;exitDx=0;exitDy=0;" edge="1" parent="wU8dArdzLeq-rl65d7KV-1" source="SRkGbtmF08TyHotfoRjQ-1" target="SRkGbtmF08TyHotfoRjQ-0">
                    <mxGeometry relative="1" as="geometry"/>
                </mxCell>
                <mxCell id="SRkGbtmF08TyHotfoRjQ-7" style="edgeStyle=none;html=1;entryX=1;entryY=0.5;entryDx=0;entryDy=0;exitX=1;exitY=0.5;exitDx=0;exitDy=0;" edge="1" parent="wU8dArdzLeq-rl65d7KV-1" source="SRkGbtmF08TyHotfoRjQ-1" target="SRkGbtmF08TyHotfoRjQ-6">
                    <mxGeometry relative="1" as="geometry">
                        <Array as="points">
                            <mxPoint x="430" y="155"/>
                            <mxPoint x="430" y="325"/>
                        </Array>
                    </mxGeometry>
                </mxCell>
                <mxCell id="SRkGbtmF08TyHotfoRjQ-1" value="[UE]Request_gNB_Information" style="rounded=1;whiteSpace=wrap;html=1;" vertex="1" parent="wU8dArdzLeq-rl65d7KV-1">
                    <mxGeometry x="20" y="130" width="370" height="50" as="geometry"/>
                </mxCell>
                <mxCell id="SRkGbtmF08TyHotfoRjQ-6" value="[UE]Update_gNB_Information" style="rounded=1;whiteSpace=wrap;html=1;" vertex="1" parent="wU8dArdzLeq-rl65d7KV-1">
                    <mxGeometry x="20" y="300" width="370" height="50" as="geometry"/>
                </mxCell>
            </root>
        </mxGraphModel>
    </diagram>
</mxfile>